<svg id="Ebene_1" data-name="Ebene 1" xmlns="http://www.w3.org/2000/svg" viewBox="0 0 270 78"><defs><style>.cls-1{fill:#fff;}.cls-2,.cls-3{fill:#e1001a;}.cls-3{stroke:#e1001a;stroke-miterlimit:3.86;stroke-width:0.01px;}</style></defs><title>Zeichenfläche 1 Kopie</title><g id="Ebene_2" data-name="Ebene 2"><g id="AK_Burgenland" data-name="AK Burgenland"><rect class="cls-1" x="0.69" y="11.46" width="54.59" height="54.85"/><polygon class="cls-2" points="60.48 11 116.48 11 116.48 67 60.48 67 60.48 11 60.48 11"/><path class="cls-2" d="M0,11V67H56V11ZM54.88,65.88H1.12V12.12H54.88Z"/><path class="cls-3" d="M49,51,38,38.84,47,27a.79.79,0,0,0-.07-1.11.81.81,0,0,0-.53-.2H41.89a2.5,2.5,0,0,0-1.92.89L30.89,38.32V26.81a1.14,1.14,0,0,0-1.14-1.14H26.18a2.49,2.49,0,0,0-2,1L6.24,51.13a.78.78,0,0,0,.22,1.08.83.83,0,0,0,.43.13h4.29a2.51,2.51,0,0,0,2-1l3-4h8.66v3.8A1.15,1.15,0,0,0,26,52.31h3.82a1.14,1.14,0,0,0,1.14-1.14V40.12l10.76,11.5a2.65,2.65,0,0,0,1.87.73h4.92a.78.78,0,0,0,.76-.82A.76.76,0,0,0,49,51ZM19.8,42.4l5-6.66V42.4Z"/><path class="cls-1" d="M67.47,40.62a1.81,1.81,0,0,0-1.07-1.8,1.79,1.79,0,0,0,.93-1.65,2,2,0,0,0-1.89-2.11H63.13V43h2.11a2.12,2.12,0,0,0,2.23-2,1.7,1.7,0,0,0,0-.39ZM66.2,37.2a1,1,0,0,1-.89,1.1H64.23V36.14h.93a.94.94,0,0,1,1,.85,1.48,1.48,0,0,1,0,.21Zm.13,3.42c0,1-.43,1.32-1.1,1.32h-1V39.37h.89a1.1,1.1,0,0,1,1.21,1A1,1,0,0,1,66.33,40.62Z"/><path class="cls-1" d="M72.74,40.65V35.07h-1.1v5.62c0,.61-.25,1.33-1.13,1.33s-1.11-.68-1.11-1.34V35.07H68.29v5.65a2.24,2.24,0,1,0,4.46.44A2.18,2.18,0,0,0,72.74,40.65Z"/><path class="cls-1" d="M78.26,43,77,39.36a2,2,0,0,0,1.25-2.09,2,2,0,0,0-1.77-2.21,2.57,2.57,0,0,0-.48,0H73.79V43H74.9V39.55h.92L77,43Zm-1.17-5.7a1,1,0,0,1-.78,1.18,1.21,1.21,0,0,1-.38,0h-1V36.14h1a1,1,0,0,1,1.16.81A1,1,0,0,1,77.09,37.3Z"/><path class="cls-1" d="M83.4,40.68V38.93h-2V40h.89v.57c0,1-.27,1.43-1,1.43-1,0-1.33-1.62-1.33-3,0-1.7.37-3,1.25-3,.57,0,.86.3,1,1.11l1.11-.3a2,2,0,0,0-2.06-1.94H81.2c-1.66,0-2.43,1.7-2.43,4.1s.7,4.1,2.39,4.1a2.15,2.15,0,0,0,2.26-2,1.91,1.91,0,0,0,0-.41Z"/><polygon class="cls-1" points="88.29 43.01 88.29 41.93 85.52 41.93 85.52 39.33 87.23 39.33 87.23 38.27 85.52 38.27 85.52 36.14 88.14 36.14 88.14 35.07 84.41 35.07 84.41 43.01 88.29 43.01 88.29 43.01"/><path class="cls-1" d="M93.45,43V35.07H92.36v5.09c-.1-.23-.4-1-.56-1.31l-1.72-3.78H89V43h1.09V37.41c.1.23.4,1,.56,1.31L92.54,43Z"/><polygon class="cls-1" points="98 43.01 98 41.92 95.46 41.92 95.46 35.07 94.35 35.07 94.35 43.01 98 43.01 98 43.01"/><path class="cls-1" d="M103.41,43l-1.94-7.94h-1.15l-2,7.94H99.5l.46-2.1h1.73l.46,2.1Zm-1.9-3.16h-1.27l.3-1.34c.11-.53.28-1.44.34-1.74.06.29.23,1.21.34,1.74Z"/><path class="cls-1" d="M108.49,43V35.07H107.4v5.09c-.1-.23-.4-1-.56-1.31l-1.71-3.78H104V43h1.09V37.41c.1.23.4,1,.56,1.31L107.58,43Z"/><path class="cls-1" d="M114.08,39c0-2.36-.76-3.94-2.52-3.94h-1.93V43h1.93C113.24,43,114.08,41.35,114.08,39Zm-1.15,0c0,1.4-.31,2.92-1.37,2.92h-.82V36.16h.79c1.11,0,1.4,1.45,1.4,2.85Z"/></g></g></svg>